<svg id="visual" viewBox="0 0 1980 1020" width="1980" height="1020" xmlns="http://www.w3.org/2000/svg" xmlns:xlink="http://www.w3.org/1999/xlink" version="1.1"><rect x="0" y="0" width="1980" height="1020" fill="#020617"></rect><path d="M0 776L23.5 778.8C47 781.7 94 787.3 141.2 804C188.3 820.7 235.7 848.3 282.8 856.2C330 864 377 852 424.2 838.7C471.3 825.3 518.7 810.7 565.8 816.7C613 822.7 660 849.3 707.2 853C754.3 856.7 801.7 837.3 848.8 829.8C896 822.3 943 826.7 990 826.7C1037 826.7 1084 822.3 1131.2 828.3C1178.3 834.3 1225.7 850.7 1272.8 859C1320 867.3 1367 867.7 1414.2 855.5C1461.3 843.3 1508.7 818.7 1555.8 806.7C1603 794.7 1650 795.3 1697.2 800.8C1744.3 806.3 1791.7 816.7 1838.8 813.3C1886 810 1933 793 1956.5 784.5L1980 776L1980 1021L1956.5 1021C1933 1021 1886 1021 1838.8 1021C1791.7 1021 1744.3 1021 1697.2 1021C1650 1021 1603 1021 1555.8 1021C1508.7 1021 1461.3 1021 1414.2 1021C1367 1021 1320 1021 1272.8 1021C1225.7 1021 1178.3 1021 1131.2 1021C1084 1021 1037 1021 990 1021C943 1021 896 1021 848.8 1021C801.7 1021 754.3 1021 707.2 1021C660 1021 613 1021 565.8 1021C518.7 1021 471.3 1021 424.2 1021C377 1021 330 1021 282.8 1021C235.7 1021 188.3 1021 141.2 1021C94 1021 47 1021 23.5 1021L0 1021Z" fill="#3b456a"></path><path d="M0 854L23.5 863.8C47 873.7 94 893.3 141.2 893.7C188.3 894 235.7 875 282.8 871.2C330 867.3 377 878.7 424.2 887C471.3 895.3 518.7 900.7 565.8 900.2C613 899.7 660 893.3 707.2 886.8C754.3 880.3 801.7 873.7 848.8 865.8C896 858 943 849 990 849.2C1037 849.3 1084 858.7 1131.2 865.7C1178.3 872.7 1225.7 877.3 1272.8 885C1320 892.7 1367 903.3 1414.2 900.7C1461.3 898 1508.7 882 1555.8 873.8C1603 865.7 1650 865.3 1697.2 865.3C1744.3 865.3 1791.7 865.7 1838.8 873.2C1886 880.7 1933 895.3 1956.5 902.7L1980 910L1980 1021L1956.5 1021C1933 1021 1886 1021 1838.8 1021C1791.7 1021 1744.3 1021 1697.2 1021C1650 1021 1603 1021 1555.8 1021C1508.7 1021 1461.3 1021 1414.2 1021C1367 1021 1320 1021 1272.8 1021C1225.7 1021 1178.3 1021 1131.2 1021C1084 1021 1037 1021 990 1021C943 1021 896 1021 848.8 1021C801.7 1021 754.3 1021 707.2 1021C660 1021 613 1021 565.8 1021C518.7 1021 471.3 1021 424.2 1021C377 1021 330 1021 282.8 1021C235.7 1021 188.3 1021 141.2 1021C94 1021 47 1021 23.5 1021L0 1021Z" fill="#9497ac"></path><path d="M0 940L23.5 944.7C47 949.3 94 958.7 141.2 963.7C188.3 968.7 235.7 969.3 282.8 967.5C330 965.7 377 961.3 424.2 957.5C471.3 953.7 518.7 950.3 565.8 950.8C613 951.3 660 955.7 707.2 951.5C754.3 947.3 801.7 934.7 848.8 926.7C896 918.7 943 915.3 990 915.5C1037 915.7 1084 919.3 1131.2 918C1178.3 916.7 1225.7 910.3 1272.8 913.5C1320 916.7 1367 929.3 1414.2 933.2C1461.3 937 1508.7 932 1555.8 926.5C1603 921 1650 915 1697.2 915.2C1744.3 915.3 1791.7 921.7 1838.8 923.5C1886 925.3 1933 922.7 1956.5 921.3L1980 920L1980 1021L1956.5 1021C1933 1021 1886 1021 1838.8 1021C1791.7 1021 1744.3 1021 1697.2 1021C1650 1021 1603 1021 1555.8 1021C1508.7 1021 1461.3 1021 1414.2 1021C1367 1021 1320 1021 1272.8 1021C1225.7 1021 1178.3 1021 1131.2 1021C1084 1021 1037 1021 990 1021C943 1021 896 1021 848.8 1021C801.7 1021 754.3 1021 707.2 1021C660 1021 613 1021 565.8 1021C518.7 1021 471.3 1021 424.2 1021C377 1021 330 1021 282.8 1021C235.7 1021 188.3 1021 141.2 1021C94 1021 47 1021 23.5 1021L0 1021Z" fill="#f3f3f3"></path></svg>