<svg id="visual" viewBox="0 0 1980 1020" width="1980" height="1020" xmlns="http://www.w3.org/2000/svg" xmlns:xlink="http://www.w3.org/1999/xlink" version="1.1"><rect x="0" y="0" width="1980" height="1020" fill="#f3f3f3"></rect><path d="M0 842L47.2 841.5C94.3 841 188.7 840 283 834.3C377.3 828.7 471.7 818.3 566 822.2C660.3 826 754.7 844 848.8 838.8C943 833.7 1037 805.3 1131.2 800.2C1225.3 795 1319.7 813 1414 820.2C1508.3 827.3 1602.7 823.7 1697 829.3C1791.3 835 1885.7 850 1932.8 857.5L1980 865L1980 1021L1932.8 1021C1885.7 1021 1791.3 1021 1697 1021C1602.7 1021 1508.3 1021 1414 1021C1319.7 1021 1225.3 1021 1131.2 1021C1037 1021 943 1021 848.8 1021C754.7 1021 660.3 1021 566 1021C471.7 1021 377.3 1021 283 1021C188.7 1021 94.3 1021 47.2 1021L0 1021Z" fill="#334155"></path><path d="M0 930L47.2 921.8C94.3 913.7 188.7 897.3 283 887.3C377.3 877.3 471.7 873.7 566 868.2C660.3 862.7 754.7 855.3 848.8 857C943 858.7 1037 869.3 1131.2 877.8C1225.3 886.3 1319.7 892.7 1414 886.8C1508.3 881 1602.7 863 1697 859.2C1791.3 855.3 1885.7 865.7 1932.8 870.8L1980 876L1980 1021L1932.8 1021C1885.7 1021 1791.3 1021 1697 1021C1602.7 1021 1508.3 1021 1414 1021C1319.7 1021 1225.3 1021 1131.2 1021C1037 1021 943 1021 848.8 1021C754.7 1021 660.3 1021 566 1021C471.7 1021 377.3 1021 283 1021C188.7 1021 94.3 1021 47.2 1021L0 1021Z" fill="#1c2a47"></path><path d="M0 979L47.2 967.7C94.3 956.3 188.7 933.7 283 921.7C377.3 909.7 471.7 908.3 566 909.8C660.3 911.3 754.7 915.7 848.8 919.5C943 923.3 1037 926.7 1131.2 935.5C1225.3 944.3 1319.7 958.7 1414 961.2C1508.3 963.7 1602.7 954.3 1697 946C1791.3 937.7 1885.7 930.3 1932.8 926.7L1980 923L1980 1021L1932.8 1021C1885.7 1021 1791.3 1021 1697 1021C1602.7 1021 1508.3 1021 1414 1021C1319.7 1021 1225.3 1021 1131.2 1021C1037 1021 943 1021 848.8 1021C754.7 1021 660.3 1021 566 1021C471.7 1021 377.3 1021 283 1021C188.7 1021 94.3 1021 47.2 1021L0 1021Z" fill="#081437"></path></svg>